<svg width="24" height="24" viewBox="0 0 24 24" fill="none" xmlns="http://www.w3.org/2000/svg">
<g id="lucide:pill">
<path id="Vector" d="M8.5 8.49903L15.5 15.499M10.5 20.499L20.5 10.499C20.9673 10.0411 21.3391 9.49508 21.5941 8.89255C21.849 8.29001 21.982 7.64291 21.9853 6.98867C21.9886 6.33443 21.8622 5.68602 21.6133 5.08094C21.3645 4.47586 20.9982 3.92612 20.5355 3.46349C20.0729 3.00087 19.5232 2.63454 18.9181 2.3857C18.313 2.13686 17.6646 2.01043 17.0104 2.01374C16.3561 2.01704 15.709 2.15001 15.1065 2.40495C14.5039 2.65989 13.9579 3.03175 13.5 3.49903L3.5 13.499C3.03273 13.957 2.66087 14.503 2.40593 15.1055C2.15098 15.708 2.01802 16.3551 2.01471 17.0094C2.01141 17.6636 2.13783 18.312 2.38668 18.9171C2.63552 19.5222 3.00184 20.0719 3.46447 20.5346C3.92709 20.9972 4.47684 21.3635 5.08192 21.6124C5.687 21.8612 6.33541 21.9876 6.98965 21.9843C7.64389 21.981 8.29099 21.848 8.89352 21.5931C9.49606 21.3382 10.0421 20.9663 10.5 20.499Z" stroke="#82807D" stroke-width="2" stroke-linecap="round" stroke-linejoin="round"/>
</g>
</svg>
