<svg width="24" height="24" viewBox="0 0 24 24" fill="none" xmlns="http://www.w3.org/2000/svg">
<g id="lucide:salad">
<g id="Group">
<path id="Vector" d="M7 21H17M12 21C14.3869 21 16.6761 20.0518 18.364 18.364C20.0518 16.6761 21 14.3869 21 12H3C3 14.3869 3.94821 16.6761 5.63604 18.364C7.32387 20.0518 9.61305 21 12 21Z" stroke="#82807D" stroke-width="2" stroke-linecap="round" stroke-linejoin="round"/>
<path id="Vector_2" d="M11.3804 11.9995C10.7747 12.0051 10.1894 11.7816 9.74166 11.3737C9.29395 10.9658 9.01702 10.4037 8.96641 9.80014C8.9158 9.19659 9.09525 8.59623 9.46877 8.11946C9.84229 7.6427 10.3823 7.32478 10.9804 7.22948C10.8846 6.80571 10.9057 6.36389 11.0413 5.95115C11.177 5.53841 11.4221 5.17023 11.7506 4.88589C12.0791 4.60155 12.4786 4.4117 12.9065 4.3366C13.3344 4.26151 13.7747 4.30398 14.1804 4.45948C14.358 4.17984 14.5916 3.94001 14.8665 3.75508C15.1413 3.57015 15.4515 3.44413 15.7775 3.38495C16.1034 3.32577 16.4381 3.33471 16.7605 3.41122C17.0828 3.48772 17.3858 3.63013 17.6504 3.82948C18.1119 3.4667 18.6905 3.28569 19.2765 3.32068C19.8625 3.35566 20.4154 3.60423 20.8305 4.01935C21.2456 4.43447 21.4942 4.98735 21.5292 5.57337C21.5642 6.15939 21.3832 6.73792 21.0204 7.19948C21.2462 7.49941 21.3985 7.84813 21.465 8.21761C21.5315 8.58709 21.5105 8.96703 21.4035 9.32689C21.2965 9.68675 21.1066 10.0165 20.849 10.2896C20.5914 10.5627 20.2734 10.7716 19.9204 10.8995C20.012 11.2594 20.0222 11.6351 19.9504 11.9995M13.0004 11.9995L17.0004 7.99948" stroke="#82807D" stroke-width="2" stroke-linecap="round" stroke-linejoin="round"/>
<path id="Vector_3" d="M10.9001 7.25046C10.3515 6.66572 9.6396 6.25979 8.85703 6.08558C8.07445 5.91136 7.25754 5.97694 6.51278 6.27376C5.76802 6.57059 5.12995 7.08489 4.68175 7.74964C4.23354 8.41438 3.99599 9.19873 4.00005 10.0005C4.00005 10.7305 4.20005 11.4105 4.54005 12.0005" stroke="#82807D" stroke-width="2" stroke-linecap="round" stroke-linejoin="round"/>
</g>
</g>
</svg>
