<svg width="20" height="20" viewBox="0 0 20 20" fill="none" xmlns="http://www.w3.org/2000/svg">
<g id="lucide:clipboard">
<g id="Group">
<path id="Vector" d="M12.4993 1.66669H7.49935C7.03911 1.66669 6.66602 2.03978 6.66602 2.50002V4.16669C6.66602 4.62692 7.03911 5.00002 7.49935 5.00002H12.4993C12.9596 5.00002 13.3327 4.62692 13.3327 4.16669V2.50002C13.3327 2.03978 12.9596 1.66669 12.4993 1.66669Z" stroke="#FDFCFC" stroke-width="1.66667" stroke-linecap="round" stroke-linejoin="round"/>
<path id="Vector_2" d="M13.333 3.33337H14.9997C15.4417 3.33337 15.8656 3.50897 16.1782 3.82153C16.4907 4.13409 16.6663 4.55801 16.6663 5.00004V16.6667C16.6663 17.1087 16.4907 17.5327 16.1782 17.8452C15.8656 18.1578 15.4417 18.3334 14.9997 18.3334H4.99967C4.55765 18.3334 4.13372 18.1578 3.82116 17.8452C3.5086 17.5327 3.33301 17.1087 3.33301 16.6667V5.00004C3.33301 4.55801 3.5086 4.13409 3.82116 3.82153C4.13372 3.50897 4.55765 3.33337 4.99967 3.33337H6.66634" stroke="#FDFCFC" stroke-width="1.66667" stroke-linecap="round" stroke-linejoin="round"/>
</g>
</g>
</svg>
