<svg width="21" height="21" viewBox="0 0 21 21" fill="none" xmlns="http://www.w3.org/2000/svg">
<g id="lucide:hand-heart">
<rect x="0.5" y="0.5" width="20" height="20" rx="10" fill="#FFE5CC"/>
<g id="Group">
<path id="Vector" d="M9.88984 11.902H11.1179C11.4436 11.902 11.756 11.7726 11.9863 11.5423C12.2166 11.3119 12.346 10.9996 12.346 10.6739C12.346 10.3482 12.2166 10.0358 11.9863 9.8055C11.756 9.57519 11.4436 9.4458 11.1179 9.4458H9.2758C8.90738 9.4458 8.60036 9.56861 8.41615 9.81422L4.97754 13.13" stroke="#FF5500" stroke-width="1.2" stroke-linecap="round" stroke-linejoin="round"/>
<path id="Vector_2" d="M7.43347 15.5861L8.41593 14.7265C8.60014 14.4808 8.90716 14.358 9.27558 14.358H11.7317C12.4072 14.358 13.0212 14.1124 13.451 13.6212L16.2756 10.9194C16.5126 10.6955 16.6509 10.3866 16.6601 10.0607C16.6693 9.73485 16.5487 9.41865 16.3247 9.1817C16.1008 8.94475 15.7919 8.80646 15.466 8.79724C15.1402 8.78803 14.824 8.90865 14.587 9.13258L12.0081 11.5273M4.36328 12.5159L8.04751 16.2002" stroke="#FF5500" stroke-width="1.2" stroke-linecap="round" stroke-linejoin="round"/>
<path id="Vector_3" d="M15.1089 8.52472C15.5387 8.09489 16.03 7.54226 16.03 6.86682C16.0729 6.4916 15.9878 6.11288 15.7886 5.79203C15.5894 5.47118 15.2876 5.22702 14.9323 5.09909C14.577 4.97117 14.1888 4.96699 13.8308 5.08722C13.4728 5.20746 13.1659 5.44507 12.9598 5.76155C12.7406 5.46963 12.4336 5.25566 12.0838 5.15106C11.7341 5.04647 11.36 5.05675 11.0165 5.1804C10.673 5.30405 10.3783 5.53456 10.1754 5.83809C9.97259 6.14161 9.87241 6.50217 9.88959 6.86682C9.88959 7.60366 10.3808 8.09489 10.8106 8.58613L12.9598 10.6739L15.1089 8.52472Z" stroke="#FF5500" stroke-width="1.2" stroke-linecap="round" stroke-linejoin="round"/>
</g>
</g>
</svg>
