<svg width="20" height="21" viewBox="0 0 20 21" fill="none" xmlns="http://www.w3.org/2000/svg">
<g id="lucide:hand-heart">
<g id="Group">
<path id="Vector" d="M9.16667 12.1663H10.8333C11.2754 12.1663 11.6993 11.9907 12.0118 11.6782C12.3244 11.3656 12.5 10.9417 12.5 10.4997C12.5 10.0576 12.3244 9.63372 12.0118 9.32116C11.6993 9.0086 11.2754 8.83301 10.8333 8.83301H8.33333C7.83333 8.83301 7.41667 8.99967 7.16667 9.33301L2.5 13.833" stroke="#FF7F00" stroke-width="1.66667" stroke-linecap="round" stroke-linejoin="round"/>
<path id="Vector_2" d="M5.83341 17.1662L7.16675 15.9996C7.41675 15.6662 7.83341 15.4996 8.33341 15.4996H11.6667C12.5834 15.4996 13.4167 15.1662 14.0001 14.4996L17.8334 10.8329C18.155 10.529 18.3427 10.1098 18.3552 9.66755C18.3677 9.22528 18.204 8.79615 17.9001 8.47458C17.5962 8.153 17.177 7.96532 16.7347 7.95282C16.2924 7.94031 15.8633 8.10401 15.5417 8.40791L12.0417 11.6579M1.66675 12.9996L6.66675 17.9996" stroke="#FF7F00" stroke-width="1.66667" stroke-linecap="round" stroke-linejoin="round"/>
<path id="Vector_3" d="M16.25 7.58333C16.8333 7 17.5 6.25 17.5 5.33333C17.5582 4.82411 17.4428 4.31013 17.1724 3.8747C16.902 3.43927 16.4925 3.1079 16.0103 2.93429C15.528 2.76068 15.0013 2.755 14.5154 2.91818C14.0295 3.08136 13.613 3.40383 13.3333 3.83333C13.0358 3.43715 12.6192 3.14677 12.1445 3.00482C11.6698 2.86287 11.1622 2.87682 10.696 3.04464C10.2299 3.21245 9.82981 3.52528 9.55455 3.9372C9.27928 4.34913 9.14332 4.83845 9.16663 5.33333C9.16663 6.33333 9.83329 7 10.4166 7.66667L13.3333 10.5L16.25 7.58333Z" stroke="#FF7F00" stroke-width="1.66667" stroke-linecap="round" stroke-linejoin="round"/>
</g>
</g>
</svg>
