<svg width="20" height="21" viewBox="0 0 20 21" fill="none" xmlns="http://www.w3.org/2000/svg">
<g id="lucide:user-round-plus">
<g id="Group">
<path id="Vector" d="M1.66675 18C1.66668 16.717 2.03686 15.4612 2.73287 14.3833C3.42888 13.3054 4.42114 12.4513 5.59058 11.9234C6.76002 11.3955 8.05695 11.2163 9.32571 11.4073C10.5945 11.5983 11.7812 12.1513 12.7434 13" stroke="#FF7F00" stroke-width="1.66667" stroke-linecap="round" stroke-linejoin="round"/>
<path id="Vector_2" d="M8.33341 11.3333C10.6346 11.3333 12.5001 9.46785 12.5001 7.16667C12.5001 4.86548 10.6346 3 8.33341 3C6.03223 3 4.16675 4.86548 4.16675 7.16667C4.16675 9.46785 6.03223 11.3333 8.33341 11.3333Z" stroke="#FF7F00" stroke-width="1.66667" stroke-linecap="round" stroke-linejoin="round"/>
<path id="Vector_3" d="M15.8335 13.833V18.833M18.3335 16.333H13.3335" stroke="#FF7F00" stroke-width="1.66667" stroke-linecap="round" stroke-linejoin="round"/>
</g>
</g>
</svg>
