<svg width="20" height="21" viewBox="0 0 20 21" fill="none" xmlns="http://www.w3.org/2000/svg">
<g id="lucide:user-round-pen">
<g id="Group">
<path id="Vector" d="M1.66675 18.0004C1.66663 16.9222 1.92801 15.8601 2.42848 14.9051C2.92895 13.9502 3.65357 13.1308 4.54021 12.5173C5.42685 11.9039 6.44905 11.5146 7.51915 11.3829C8.58925 11.2512 9.67533 11.3811 10.6842 11.7612M17.8151 14.3554C18.147 14.0234 18.3335 13.5732 18.3335 13.1037C18.3335 12.6343 18.147 12.184 17.8151 11.8521C17.4831 11.5201 17.0329 11.3336 16.5634 11.3336C16.0939 11.3336 15.6437 11.5201 15.3117 11.8521L11.9701 15.1954C11.772 15.3934 11.6269 15.6382 11.5484 15.9071L10.8509 18.2987C10.83 18.3705 10.8287 18.4465 10.8473 18.5188C10.8658 18.5912 10.9035 18.6572 10.9563 18.71C11.0091 18.7629 11.0751 18.8005 11.1475 18.819C11.2199 18.8376 11.2959 18.8363 11.3676 18.8154L13.7592 18.1179C14.0281 18.0394 14.2729 17.8944 14.4709 17.6962L17.8151 14.3554Z" stroke="#FF7F00" stroke-width="1.66667" stroke-linecap="round" stroke-linejoin="round"/>
<path id="Vector_2" d="M8.33341 11.3333C10.6346 11.3333 12.5001 9.46785 12.5001 7.16667C12.5001 4.86548 10.6346 3 8.33341 3C6.03223 3 4.16675 4.86548 4.16675 7.16667C4.16675 9.46785 6.03223 11.3333 8.33341 11.3333Z" stroke="#FF7F00" stroke-width="1.66667" stroke-linecap="round" stroke-linejoin="round"/>
</g>
</g>
</svg>
